<svg viewBox="0 0 16 16">
  <rect fill="#828282" width="16" height="16" ry="2.5" rx="2.5" />
  <path style="fill:#ffffff" d="m 5.137446,13.4419 0,-7.2714 -2.41664,0 0,7.2714 2.41664,0 z m -1.208,-8.2648 c 0.84272,0 1.36728,-0.5583 1.36728,-1.2561 C 5.281021,3.2074 4.772198,2.6646 3.945446,2.6646 c -0.82664,0 -1.3672,0.5429 -1.3672,1.2564 0,0.6978 0.524424,1.2561 1.33544,1.2561 l 0.015705,0 z" />
  <path style="fill:#ffffff" d="m 6.475046,13.4419 2.41664,0 0,-4.0607 c 0,-0.2173 0.0157,-0.4344 0.07952,-0.5898 0.1747,-0.4342 0.572335,-0.8839 1.23992,-0.8839 0.87448,0 1.22432,0.6668 1.22432,1.6444 l 0,3.8899 2.41648,0 0,-4.1693 c 0,-2.2335 -1.19224,-3.2727 -2.78224,-3.2727 -1.30368,0 -1.87608,0.7288 -2.1940799,1.2251 l 0.01615,0 0,-1.0546 -2.4166405,0 c 0.03171,0.6824 0,7.2715 0,7.2715 z" />
</svg>
